<!-- Generator: Adobe Illustrator 20.1.0, SVG Export Plug-In  -->
<svg version="1.1"
	 xmlns="http://www.w3.org/2000/svg" xmlns:xlink="http://www.w3.org/1999/xlink" xmlns:a="http://ns.adobe.com/AdobeSVGViewerExtensions/3.0/"
	 x="0px" y="0px" width="30px" height="31.6px" viewBox="0 0 30 31.6" style="enable-background:new 0 0 30 31.6;"
	 xml:space="preserve">
<style type="text/css">
	.st0{fill:#FFFFFF;}
</style>
<defs>
</defs>
<path class="st0" d="M28.7,8.6c-0.9-1.9-2-3.5-3.5-4.8c-1.4-1.3-3.1-2.2-4.8-2.9c-1.8-0.6-3.6-1-5.4-1c-1.8,0-3.6,0.3-5.4,1
	C7.7,1.6,6.1,2.6,4.7,3.8C3.3,5.1,2.2,6.7,1.3,8.6C0.4,10.5,0,12.8,0,15.3v16.3h9V15.3c0-2.2,0.5-3.8,1.7-4.8C11.9,9.5,13.3,9,15,9
	c1.6,0,3,0.5,4.2,1.5c1.2,1,1.8,2.6,1.8,4.8v16.3h9V15.3C30,12.8,29.5,10.5,28.7,8.6z"/>
</svg>
