<!-- Generator: Adobe Illustrator 20.1.0, SVG Export Plug-In  -->
<svg version="1.1" xmlns="http://www.w3.org/2000/svg" xmlns:xlink="http://www.w3.org/1999/xlink" xmlns:a="http://ns.adobe.com/AdobeSVGViewerExtensions/3.0/" x="0px" y="0px" width="60px" height="35.4px" viewBox="0 0 60 35.4" style="enable-background:new 0 0 60 35.4;" xml:space="preserve">
<defs>
</defs>
<path d="M0,17.7c0,0.7,0.2,1.3,0.7,1.8c0.5,0.5,1.1,0.7,1.8,0.7h48.9L40.8,31c-1.3,1.1-1.3,2.3-0.1,3.5s2.4,1.2,3.5-0.1l15-15  c0.3-0.2,0.5-0.5,0.6-0.8c0.1-0.3,0.2-0.6,0.2-0.9c0-0.3-0.1-0.6-0.2-0.9c-0.1-0.3-0.3-0.6-0.6-0.8l-15-15c-1.1-1.3-2.3-1.3-3.5-0.1  s-1.2,2.4,0.1,3.5l10.6,10.8H2.5c-0.7,0-1.3,0.2-1.8,0.7C0.2,16.3,0,16.9,0,17.7z"/>
</svg>