<!-- Generator: Adobe Illustrator 20.1.0, SVG Export Plug-In  -->
<svg version="1.1"
	 xmlns="http://www.w3.org/2000/svg" xmlns:xlink="http://www.w3.org/1999/xlink" xmlns:a="http://ns.adobe.com/AdobeSVGViewerExtensions/3.0/"
	 x="0px" y="0px" width="30px" height="32px" viewBox="0 0 30 32" style="enable-background:new 0 0 30 32;" xml:space="preserve">
<style type="text/css">
	.st0{fill:#FFFFFF;}
</style>
<defs>
</defs>
<path class="st0" d="M21,16.7c0,2.2-0.6,3.8-1.8,4.8c-1.2,1-2.6,1.5-4.3,1.5c-1.6,0-3-0.5-4.2-1.5c-1.2-1-1.7-2.6-1.7-4.8V0H0v16.7
	c0,2.6,0.4,4.8,1.3,6.7c0.9,1.9,2,3.5,3.4,4.7c1.4,1.3,3,2.2,4.8,2.9c1.8,0.6,3.6,1,5.4,1c1.8,0,3.6-0.3,5.4-1s3.4-1.6,4.8-2.9
	c1.4-1.3,2.6-2.8,3.5-4.7c0.9-1.9,1.3-4.1,1.3-6.7V0h-9V16.7z"/>
</svg>
