<!-- Generator: Adobe Illustrator 20.1.0, SVG Export Plug-In  -->
<svg version="1.1"
	 xmlns="http://www.w3.org/2000/svg" xmlns:xlink="http://www.w3.org/1999/xlink" xmlns:a="http://ns.adobe.com/AdobeSVGViewerExtensions/3.0/"
	 x="0px" y="0px" width="30.1px" height="63.6px" viewBox="0 0 30.1 63.6" style="enable-background:new 0 0 30.1 63.6;"
	 xml:space="preserve">
<style type="text/css">
	.st0{fill:#FFFFFF;}
</style>
<defs>
</defs>
<path class="st0" d="M0,15.3c0-2.5,0.4-4.7,1.3-6.7c0.9-1.9,2-3.5,3.5-4.8c1.4-1.3,3-2.2,4.8-2.9c1.8-0.6,3.6-1,5.4-1
	c1.8,0,3.6,0.3,5.4,1c1.8,0.6,3.4,1.6,4.8,2.9c1.4,1.3,2.6,2.9,3.5,4.8c0.9,1.9,1.3,4.2,1.3,6.7v3.2h-9v-3.2c0-2.2-0.6-3.8-1.8-4.8
	C18.1,9.5,16.7,9,15,9c-1.6,0-3.1,0.5-4.3,1.5c-1.2,1-1.8,2.6-1.8,4.8v33c0,2.2,0.6,3.8,1.8,4.8c1.2,1,2.6,1.5,4.3,1.5
	c1.6,0,3.1-0.5,4.3-1.5c1.2-1,1.8-2.6,1.8-4.8V36.6H14v-7.9h16.1v19.7c0,2.6-0.4,4.8-1.3,6.7c-0.9,1.9-2,3.5-3.5,4.7
	c-1.4,1.3-3,2.2-4.8,2.9c-1.8,0.6-3.6,1-5.4,1c-1.8,0-3.6-0.3-5.4-1c-1.8-0.6-3.4-1.6-4.8-2.9c-1.4-1.3-2.6-2.8-3.5-4.7
	C0.4,53.2,0,50.9,0,48.3V15.3z"/>
</svg>
