<!-- Generator: Adobe Illustrator 20.1.0, SVG Export Plug-In  -->
<svg version="1.1"
	 xmlns="http://www.w3.org/2000/svg" xmlns:xlink="http://www.w3.org/1999/xlink" xmlns:a="http://ns.adobe.com/AdobeSVGViewerExtensions/3.0/"
	 x="0px" y="0px" width="23.1px" height="62px" viewBox="0 0 23.1 62" style="enable-background:new 0 0 23.1 62;"
	 xml:space="preserve">
<style type="text/css">
	.st0{fill:#FFFFFF;}
</style>
<defs>
</defs>
<path class="st0" d="M4.5,8c1.6,0,3,0.4,4,0.8c1,0.4,1.8,1.1,2.3,2c0.6,0.8,0.9,1.9,1.1,3.1c0.2,1.2,0.3,2.6,0.3,4.2
	c0,1.6-0.1,3-0.3,4.2c-0.2,1.2-0.5,2.2-1,3c-0.5,0.8-1.2,1.5-2.2,2C7.8,27.7,6.6,28,5,28H0v8h5.2l8.3,26h9.5l-9.7-28.3
	c2.9-1.6,4.9-3.6,6-6.2c1.1-2.6,1.7-5.6,1.7-9.3C21.1,6,15.9,0,5.3,0H0v8H4.5z"/>
</svg>
